# xmcd
#
# Track frame offsets: 
#        150
#        17170
#        32247
#        45795
#        66198
#        80574
#        95927
#        110695
#        122584
#        135597
#        147071
#        168317
#        185080
#        204108
#        218489
#        234458
#        251273
#        268505
#        280988
#        317283
#
# Disc length: 4442 seconds
#
# Revision: 0
# Processed by: cddbd v1.5.2PL0 Copyright (c) Steve Scherf et al.
# Submitted via: ExactAudioCopy v0.99pb4
#
DISCID=13115814
DTITLE=Bobby Curtola - 21 Great Hits (volume VIII)
DYEAR=1998
DGENRE=Rock and Roll
TTITLE0=Lady Cop
TTITLE1=New Orleans
TTITLE2=Heartbreak Radio
TTITLE3=Detroit Diesel
TTITLE4=Rockin' Pneumonia
TTITLE5=Dream Lover
TTITLE6=Queen Of The Hop
TTITLE7=Sweet Nothings
TTITLE8=Take Good Care
TTITLE9=When I Cry
TTITLE10=Dreaming Of You
TTITLE11=September
TTITLE12=Frieda Lee
TTITLE13=Pretty Woman
TTITLE14=La Bamba
TTITLE15=Stand By Me
TTITLE16=Detonate
TTITLE17=Come N' Go
TTITLE18=Medley (dance mix)
TTITLE19=Precious Memories
EXTD=
EXTT0=
EXTT1=
EXTT2=
EXTT3=
EXTT4=
EXTT5=
EXTT6=
EXTT7=
EXTT8=
EXTT9=
EXTT10=
EXTT11=
EXTT12=
EXTT13=
EXTT14=
EXTT15=
EXTT16=
EXTT17=
EXTT18=
EXTT19=
PLAYORDER=
